<svg width="60" height="60" viewBox="0 0 60 60" fill="none" xmlns="http://www.w3.org/2000/svg">
<path d="M30 0C13.4571 0 0 13.4571 0 30C0 46.5429 13.4571 60 30 60C46.5429 60 60 46.5429 60 30C60 13.4571 46.5429 0 30 0ZM30 57.1429C15.0343 57.1429 2.85714 44.9657 2.85714 30C2.85714 15.0343 15.0343 2.85714 30 2.85714C44.9657 2.85714 57.1429 15.0343 57.1429 30C57.1429 44.9657 44.9657 57.1429 30 57.1429ZM42.7455 30.5455C42.6741 30.7226 42.5686 30.88 42.4372 31.0114L33.8658 39.5829C33.5858 39.8629 33.2201 40 32.8544 40C32.4886 40 32.1229 39.86 31.8429 39.5829C31.2858 39.0257 31.2858 38.1199 31.8429 37.5628L37.9743 31.4314H18.5714C17.7829 31.4314 17.1429 30.7914 17.1429 30.0028C17.1429 29.2142 17.7829 28.5742 18.5714 28.5742H37.9799L31.8485 22.4428C31.2914 21.8857 31.2914 20.9799 31.8485 20.4227C32.4056 19.8656 33.3114 19.8656 33.8686 20.4227L42.44 28.9941C42.5714 29.1256 42.6769 29.2858 42.7483 29.4601C42.8912 29.803 42.8913 30.1969 42.7455 30.5455Z" fill="#10084F"/>
</svg>
