<svg width="60" height="60" viewBox="0 0 60 60" fill="none" xmlns="http://www.w3.org/2000/svg">
<path d="M30 0C13.4571 0 0 13.4571 0 30C0 46.5429 13.4571 60 30 60C46.5429 60 60 46.5429 60 30C60 13.4571 46.5429 0 30 0ZM30 57.1429C15.0343 57.1429 2.85714 44.9657 2.85714 30C2.85714 15.0343 15.0343 2.85714 30 2.85714C44.9657 2.85714 57.1429 15.0343 57.1429 30C57.1429 44.9657 44.9657 57.1429 30 57.1429ZM42.8571 30C42.8571 30.7886 42.2171 31.4286 41.4286 31.4286H22.0201L28.1515 37.56C28.7087 38.1171 28.7087 39.0229 28.1515 39.5801C27.8715 39.8601 27.5058 39.9972 27.1401 39.9972C26.7744 39.9972 26.4086 39.8572 26.1286 39.5801L17.5572 31.0086C17.4258 30.8772 17.3203 30.717 17.2489 30.5427C17.1032 30.1941 17.1032 29.8003 17.2489 29.4517C17.3203 29.2746 17.4258 29.1172 17.5572 28.9858L26.1286 20.4143C26.6858 19.8572 27.5916 19.8572 28.1487 20.4143C28.7059 20.9715 28.7059 21.8773 28.1487 22.4344L22.0173 28.5658H41.4286C42.2171 28.5716 42.8571 29.2114 42.8571 30Z" fill="#10084F"/>
</svg>
