<svg width="40" height="40" viewBox="0 0 40 40" fill="none" xmlns="http://www.w3.org/2000/svg">
<path d="M39.55 37.375C40.15 37.975 40.15 38.9506 39.55 39.5507C39.2485 39.8523 38.8546 40 38.4608 40C38.067 40 37.6731 39.8492 37.3716 39.5507L20 22.176L2.62838 39.5507C2.32686 39.8523 1.93301 40 1.53918 40C1.14535 40 0.751509 39.8492 0.449982 39.5507C-0.149994 38.9506 -0.149994 37.975 0.449982 37.375L17.8216 20.0004L0.449982 2.62582C-0.149994 2.02575 -0.149994 1.05014 0.449982 0.450059C1.04996 -0.15002 2.02531 -0.15002 2.62528 0.450059L19.9969 17.8248L37.3686 0.450059C37.9685 -0.15002 38.9439 -0.15002 39.5439 0.450059C40.1438 1.05014 40.1438 2.02575 39.5439 2.62582L22.1753 20.0004L39.55 37.375Z" fill="#10084F"/>
</svg>
